#!OML:ASF X:\für Bonn\!DataBase\2005_08_10_Bjorn_Final\c3d\bjorn.ASF
:FULLY-SPECIFIED
:DEGREES
107
root 0.327973 11.3605 3.25989 -180.969 -3.48669 179.757
lowerback 24.5107 1.57833 3.75197
upperback 13.1375 -0.433353 -0.581699
thorax 0.936116 -1.32117 -2.68095
lowerneck -21.4738 -5.1243 0.107765
upperneck -3.10185 -8.04321 3.96076
head 2.87212 -4.28695 0.544202
rclavicle 8.4732e-015 -6.11263e-015
rhumerus 77.2777 -3.58554 -62.7223
rradius 9.38286
rwrist 36.6382
rhand -16.3775 13.0539
rfingers 7.12502
rthumb 9.83597 -16.6963
lclavicle 8.4732e-015 -6.11263e-015
lhumerus 79.9857 -5.26785 41.7035
lradius 15.0793
lwrist -33.1773
lhand -15.9751 -6.00964
lfingers 7.12502
lthumb 10.2242 23.7219
rfemur -72.6086 -26.4187 13.0225
rtibia 128.705
rfoot -36.5111 20.8709
rtoes -38.5222
lfemur -69.3095 15.8443 -16.7621
ltibia 132.137
lfoot -29.63 -14.0072
ltoes -33.1269
108
root 0.318829 11.5672 3.25283 -180.831 -3.45985 179.829
lowerback 24.0927 1.56257 3.77095
upperback 13.036 -0.393396 -0.585986
thorax 1.0229 -1.27241 -2.70677
lowerneck -21.5362 -5.07463 0.139831
upperneck -2.90669 -7.96683 3.84169
head 2.94472 -4.24047 0.501016
rclavicle 1.61513e-014 3.67752e-015
rhumerus 77.3337 -3.63731 -62.9267
rradius 9.47751
rwrist 37.0338
rhand -15.9339 13.0176
rfingers 7.12502
rthumb 10.2639 -16.712
lclavicle 1.61513e-014 3.67752e-015
lhumerus 79.9982 -5.2291 41.9299
lradius 15.1386
lwrist -33.273
lhand -15.5467 -6.04354
lfingers 7.12502
lthumb 10.6375 23.6672
rfemur -71.5175 -24.8285 13.1959
rtibia 127.036
rfoot -35.9802 20.3
rtoes -38.0438
lfemur -68.3166 14.4632 -16.8619
ltibia 130.502
lfoot -29.3042 -13.3275
ltoes -32.9978
109
root 0.309752 11.7738 3.24453 -180.695 -3.43246 179.883
lowerback 23.6518 1.54992 3.76685
upperback 12.934 -0.35397 -0.5944
thorax 1.12071 -1.22432 -2.72358
lowerneck -21.6824 -5.03496 0.168005
upperneck -2.63341 -7.90288 3.73326
head 3.06202 -4.19563 0.456681
rclavicle 1.0958e-014 -4.42296e-015
rhumerus 77.3773 -3.6623 -63.1366
rradius 9.63643
rwrist 37.3463
rhand -15.3793 12.958
rfingers 7.12502
rthumb 10.7989 -16.7444
lclavicle 1.0958e-014 -4.42296e-015
lhumerus 80.0368 -5.19128 41.9645
lradius 15.1709
lwrist -33.157
lhand -15.1521 -5.91585
lfingers 7.12502
lthumb 11.0181 23.775
rfemur -70.4343 -23.4479 13.3502
rtibia 125.349
rfoot -35.4469 19.8524
rtoes -37.4977
lfemur -67.3431 13.2371 -16.9723
ltibia 128.854
lfoot -28.9663 -12.6727
ltoes -32.8888
110
root 0.300405 11.9793 3.23459 -180.573 -3.38556 179.901
lowerback 23.193 1.55556 3.69975
upperback 12.8353 -0.304636 -0.589503
thorax 1.23085 -1.17549 -2.69216
lowerneck -21.8695 -4.99494 0.174271
upperneck -2.29327 -7.82862 3.60012
head 3.21131 -4.14275 0.406435
rclavicle -2.03754e-015 4.72114e-016
rhumerus 77.4342 -3.65912 -63.3175
rradius 9.81082
rwrist 37.592
rhand -14.8049 12.8727
rfingers 7.12502
rthumb 11.3529 -16.8
lclavicle -2.03754e-015 4.72114e-016
lhumerus 80.0512 -5.15163 42.1111
lradius 15.1978
lwrist -33.069
lhand -14.9512 -5.86817
lfingers 7.12502
lthumb 11.2119 23.8122
rfemur -69.3351 -22.2334 13.446
rtibia 123.649
rfoot -34.9635 19.5054
rtoes -36.8656
lfemur -66.3244 12.1959 -17.1088
ltibia 127.184
lfoot -28.6584 -12.0631
ltoes -32.7929
111
root 0.290776 12.1858 3.22055 -180.435 -3.33506 179.865
lowerback 22.6668 1.56647 3.60117
upperback 12.7242 -0.247242 -0.617651
thorax 1.36068 -1.11916 -2.67973
lowerneck -22.4424 -4.9522 0.256242
upperneck -1.30966 -7.77487 3.43931
head 3.17505 -4.08288 0.320783
rclavicle 1.9456e-014 -8.24956e-015
rhumerus 77.4577 -3.68539 -63.5097
rradius 9.99234
rwrist 37.7753
rhand -14.3628 12.8216
rfingers 7.12502
rthumb 11.7793 -16.8272
lclavicle 1.9456e-014 -8.24956e-015
lhumerus 80.0739 -5.17103 42.083
lradius 15.2397
lwrist -32.7356
lhand -14.9716 -5.71091
lfingers 7.12502
lthumb 11.1922 23.9706
rfemur -68.2473 -21.1986 13.4653
rtibia 121.943
rfoot -34.4842 19.2443
rtoes -36.2532
lfemur -65.2914 11.2403 -17.3097
ltibia 125.489
lfoot -28.367 -11.4661
ltoes -32.793
112
root 0.281374 12.394 3.19981 -180.307 -3.34305 179.858
lowerback 22.1075 1.54079 3.54445
upperback 12.5747 -0.214393 -0.651179
thorax 1.46507 -1.06767 -2.69038
lowerneck -22.5565 -4.92731 0.272027
upperneck -0.829444 -7.70846 3.35534
head 3.33596 -4.02225 0.287338
rclavicle 3.45388e-015 -1.06847e-015
rhumerus 77.4136 -3.65254 -63.7281
rradius 10.207
rwrist 38.1896
rhand -14.0862 12.7171
rfingers 7.12502
rthumb 12.046 -16.9162
lclavicle 3.45388e-015 -1.06847e-015
lhumerus 80.0272 -5.17747 42.5058
lradius 15.2629
lwrist -33.4143
lhand -15.1317 -5.64184
lfingers 7.12502
lthumb 11.0378 24.0479
rfemur -67.0541 -20.338 13.4969
rtibia 120.188
rfoot -34.0758 19.0546
rtoes -35.6576
lfemur -64.1993 10.3517 -17.4548
ltibia 123.765
lfoot -28.1278 -10.9247
ltoes -32.7036
113
root 0.271804 12.6034 3.17614 -180.176 -3.33811 179.837
lowerback 21.5023 1.53007 3.44279
upperback 12.4321 -0.17158 -0.659469
thorax 1.60105 -1.01432 -2.6504
lowerneck -22.6914 -4.91417 0.232144
upperneck -0.361105 -7.64604 3.26687
head 3.49818 -3.96601 0.26054
rclavicle -1.1691e-014 4.72114e-016
rhumerus 77.4651 -3.80202 -64.6225
rradius 10.4102
rwrist 39.6553
rhand -13.8829 12.7213
rfingers 7.12502
rthumb 12.242 -16.9004
lclavicle -1.1691e-014 4.72114e-016
lhumerus 79.9799 -5.14014 42.9108
lradius 15.3612
lwrist -33.7972
lhand -15.1107 -5.58587
lfingers 7.12502
lthumb 11.0579 24.1028
rfemur -65.8537 -19.5659 13.4999
rtibia 118.418
rfoot -33.6932 18.8989
rtoes -35.0593
lfemur -63.0713 9.56355 -17.6055
ltibia 122.005
lfoot -27.8782 -10.4679
ltoes -32.5309
114
root 0.262199 12.8138 3.15036 -180.057 -3.33439 179.832
lowerback 20.8942 1.50597 3.37114
upperback 12.2715 -0.135868 -0.687151
thorax 1.72154 -0.960933 -2.64585
lowerneck -22.7341 -4.88643 0.224448
upperneck 0.0754212 -7.57101 3.21221
head 3.63825 -3.90279 0.243524
rclavicle 3.72721e-015 -4.05024e-015
rhumerus 77.5036 -3.93146 -65.4781
rradius 10.5827
rwrist 41.1796
rhand -13.7382 12.728
rfingers 7.12502
rthumb 12.3815 -16.8853
lclavicle 3.72721e-015 -4.05024e-015
lhumerus 79.969 -5.13367 43.1029
lradius 15.4454
lwrist -33.6049
lhand -15.0343 -5.63362
lfingers 7.12502
lthumb 11.1317 24.0511
rfemur -64.6232 -18.8748 13.5291
rtibia 116.601
rfoot -33.3021 18.7758
rtoes -34.3922
lfemur -61.9209 8.88273 -17.7113
ltibia 120.219
lfoot -27.6313 -10.1765
ltoes -32.1623
115
root 0.252 13.0231 3.12222 -179.936 -3.31113 179.809
lowerback 20.2361 1.49628 3.276
upperback 12.129 -0.0904122 -0.707947
thorax 1.88943 -0.904804 -2.62251
lowerneck -22.8277 -4.85656 0.215844
upperneck 0.553271 -7.49044 3.10301
head 3.79627 -3.83901 0.208604
rclavicle 1.08959e-014 -2.03506e-014
rhumerus 77.6092 -3.9988 -65.9212
rradius 10.6029
rwrist 42.2919
rhand -13.8688 12.6619
rfingers 7.12502
rthumb 12.2556 -16.959
lclavicle 1.08959e-014 -2.03506e-014
lhumerus 80.0088 -5.11685 43.0801
lradius 15.4939
lwrist -33.2097
lhand -14.9923 -5.62081
lfingers 7.12502
lthumb 11.1722 24.0617
rfemur -63.4065 -18.2918 13.5394
rtibia 114.775
rfoot -32.9551 18.6553
rtoes -33.8736
lfemur -60.7667 8.26604 -17.8502
ltibia 118.411
lfoot -27.4415 -9.72984
ltoes -32.0733
116
root 0.24252 13.2319 3.09097 -179.825 -3.26804 179.791
lowerback 19.5205 1.5027 3.14153
upperback 12.0335 -0.0440776 -0.69214
thorax 2.13972 -0.855075 -2.53872
lowerneck -23.0064 -4.83568 0.11751
upperneck 1.05054 -7.40684 3.04205
head 3.97798 -3.77267 0.20041
rclavicle -8.91425e-015 7.85199e-015
rhumerus 77.8456 -4.02475 -66.1344
rradius 10.5395
rwrist 43.043
rhand -14.0864 12.5953
rfingers 7.12502
rthumb 12.0458 -17.038
lclavicle -8.91425e-015 7.85199e-015
lhumerus 80.134 -5.03046 42.913
lradius 15.4718
lwrist -32.5809
lhand -15.0449 -5.62115
lfingers 7.12502
lthumb 11.1215 24.0641
rfemur -62.1556 -17.7166 13.5483
rtibia 112.908
rfoot -32.5492 18.6175
rtoes -33.133
lfemur -59.5736 7.77419 -17.9569
ltibia 116.572
lfoot -27.2576 -9.43133
ltoes -31.8417
117
root 0.232465 13.4415 3.05912 -179.727 -3.24813 179.783
lowerback 18.8093 1.50042 3.08011
upperback 11.9393 0.00250102 -0.71658
thorax 2.3946 -0.799975 -2.53834
lowerneck -23.1547 -4.80607 0.133201
upperneck 1.52073 -7.34038 2.95305
head 4.14251 -3.71772 0.165864
rclavicle 8.80243e-015 -7.51655e-015
rhumerus 78.0802 -4.10985 -66.344
rradius 10.4484
rwrist 43.5729
rhand -14.2829 12.6
rfingers 7.12502
rthumb 11.8564 -17.0443
lclavicle 8.80243e-015 -7.51655e-015
lhumerus 80.2972 -4.98112 42.6953
lradius 15.4809
lwrist -31.9766
lhand -15.1677 -5.64445
lfingers 7.12502
lthumb 11.003 24.0472
rfemur -60.8885 -17.2187 13.5746
rtibia 111.007
rfoot -32.1655 18.5039
rtoes -32.6582
lfemur -58.3672 7.29364 -18.0576
ltibia 114.692
lfoot -27.1299 -8.98601
ltoes -32.0294
118
root 0.222836 13.6543 3.02495 -179.669 -3.22687 179.781
lowerback 18.0924 1.50813 2.98953
upperback 11.8903 0.0431943 -0.708847
thorax 2.70385 -0.755446 -2.48663
lowerneck -23.3737 -4.76853 0.104671
upperneck 1.99702 -7.2561 2.86094
head 4.32062 -3.65622 0.137302
rclavicle -1.46604e-015 -6.52262e-015
rhumerus 78.4027 -4.20564 -66.7725
rradius 10.3821
rwrist 44.2363
rhand -14.3451 12.6116
rfingers 7.12502
rthumb 11.7963 -17.0362
lclavicle -1.46604e-015 -6.52262e-015
lhumerus 80.4723 -4.87443 42.564
lradius 15.462
lwrist -31.469
lhand -15.4093 -5.66752
lfingers 7.12502
lthumb 10.77 24.0364
rfemur -59.5285 -16.7671 13.5978
rtibia 109.032
rfoot -31.7289 18.4534
rtoes -31.9769
lfemur -57.0796 6.87521 -18.1313
ltibia 112.746
lfoot -26.9905 -8.64634
ltoes -32.0518
